<?xml version="1.0" encoding="utf-8"?>
<!-- Generator: Adobe Illustrator 26.0.1, SVG Export Plug-In . SVG Version: 6.00 Build 0)  -->
<svg version="1.1" id="Layer_1" xmlns="http://www.w3.org/2000/svg" xmlns:xlink="http://www.w3.org/1999/xlink" x="0px" y="0px"
	 viewBox="0 0 1080 1080" style="enable-background:new 0 0 1080 1080;" xml:space="preserve">
<style type="text/css">
	.st0{fill:#37B772;}
	.st1{fill:#FFFFFF;}
</style>
<path class="st0" d="M882.91,1080H197.09C88.24,1080,0,991.76,0,882.91V197.09C0,88.24,88.24,0,197.09,0h685.82
	C991.76,0,1080,88.24,1080,197.09v685.82C1080,991.76,991.76,1080,882.91,1080z"/>
<g>
	<path class="st1" d="M793.93,770.85V401.49H424.58v-23.08c0-38.18,31.07-69.25,69.25-69.25h69.25V170.64h-69.25
		c-114.69,0.13-207.64,93.07-207.76,207.76v23.08h-92.34V540h92.34v230.85h-92.34v138.51h323.19V770.85h-92.34V540h232.14v230.85
		h-93.63v138.51h323.19V770.85H793.93z"/>
	<circle class="st1" cx="724.68" cy="239.9" r="69.25"/>
</g>
</svg>
